<?xml version="1.0"?>
<!DOCTYPE svg PUBLIC "-//W3C//DTD SVG 1.1//EN" "http://www.w3.org/Graphics/SVG/1.1/DTD/svg11.dtd">
<svg xmlns="http://www.w3.org/2000/svg" version="1.1" width="1413" height="1225" viewBox="2 -11 1413 1225" class="mode-dir">
<style>
html, body {
  margin: 0;
  overflow: hidden;
}

svg {
  font-family: sans-serif;
}

#data {
  display: none;
}

.node circle {
  stroke: #fff;
  stroke-width: 0.2vh;
  fill: #000;
}

.node-root circle {
  fill: #000;
}

.node-module circle {
  fill: #367FBA;
}

.node-external circle {
  fill: #55B748;
}

.node-class circle {
  fill: #BE248D;
}

.node text {
  font-size: 11px;
  text-anchor: middle;

  fill: #000;
  font-weight: bold;

  text-shadow:
    0 0 0.5vh white,
    0 0 0.5vh white,
    0 0 0.5vh white,
    0 0 0.5vh white,
    0 0 0.5vh white,
    0 0 0.5vh white;
}

.node-directory circle,
.node-directory text {
  fill: #666;
}

.node-file circle,
.node-file text {
  fill: #CCC;
}

.node {
  transition: opacity 2s;
}

.link {
  stroke: #000;
  stroke-opacity: 0.5;
  stroke-width: 3;
  transition: opacity 2s, stroke 2s, stroke-opacity 2s, stroke-width 2s;
}

.mode-dir .link-subdir {
  stroke-opacity: 0.4;
}

.mode-dir .link-import {
  stroke-opacity: 0.1;
  stroke-width: 1;
}

.mode-dir .link-child-file {
  stroke: #CCC;
}

.mode-module .link-subdir,
.mode-module .link-child {
  stroke-opacity: 0.05;
  stroke-width: 1;
}

.mode-module .link-import {
  stroke-width: 1;
  stroke-opacity: 0.6;
}

.mode-module .node-root,
.mode-module .node-directory,
.mode-module .node-file {
  opacity: 0.2;
}

#controls {
  position: fixed;
  top: 1em;
  left: 1em;

  display: flex;
  align-items: baseline;
  flex-wrap: nowrap;
}

#controls > * {
  margin: 0 1em;
}

#controls .select-wrapper {
  width: 12em;
}

#controls .select-dropdown {
  margin-bottom: 0;
}

</style>
<defs><marker id="end" viewBox="0 -5 10 10" refX="27.000000000000004" refY="0" markerWidth="2.8311111111111114" markerHeight="2.8311111111111114" orient="auto"><path d="M0,-5L10,0L0,5"></path></marker></defs><line class="link link-child link-child-module" x1="679.6441931935057" y1="705.14579588356" x2="824.5467079422563" y2="797.9290856054455"></line><line class="link link-child link-child-module" x1="679.6441931935057" y1="705.14579588356" x2="803.8803720236589" y2="759.0061099020462"></line><line class="link link-child link-child-module" x1="679.6441931935057" y1="705.14579588356" x2="757.4034212250432" y2="625.0991160044225"></line><line class="link link-child link-child-module" x1="679.6441931935057" y1="705.14579588356" x2="601.9187047006375" y2="767.9364909511985"></line><line class="link link-child link-child-module" x1="679.6441931935057" y1="705.14579588356" x2="832.2533197272762" y2="721.8071527165122"></line><line class="link link-child link-child-module" x1="679.6441931935057" y1="705.14579588356" x2="568.1141746403251" y2="594.7561025342803"></line><line class="link link-subdir link-subdir-directory" x1="679.6441931935057" y1="705.14579588356" x2="658.3211055336436" y2="385.603225295007"></line><line class="link link-child link-child-module" x1="679.6441931935057" y1="705.14579588356" x2="599.8237692630742" y2="803.0735158410537"></line><line class="link link-child link-child-module" x1="679.6441931935057" y1="705.14579588356" x2="767.8891611921996" y2="825.9243890095503"></line><line class="link link-child link-child-module" x1="679.6441931935057" y1="705.14579588356" x2="807.962516633076" y2="611.0394412301515"></line><line class="link link-child link-child-module" x1="679.6441931935057" y1="705.14579588356" x2="819.9136033248195" y2="661.7211359009759"></line><line class="link link-child link-child-module" x1="679.6441931935057" y1="705.14579588356" x2="698.9126280502552" y2="820.2036943405963"></line><line class="link link-child link-child-module" x1="679.6441931935057" y1="705.14579588356" x2="729.2587046683751" y2="852.4662390611517"></line><line class="link link-subdir link-subdir-directory" x1="679.6441931935057" y1="705.14579588356" x2="387.8199839349584" y2="831.982352771916"></line><line class="link link-child link-child-module" x1="679.6441931935057" y1="705.14579588356" x2="570.8384518447203" y2="727.0264346192337"></line><line class="link link-child link-child-module" x1="679.6441931935057" y1="705.14579588356" x2="586.6702549784101" y2="675.057947316291"></line><line class="link link-child link-child-module" x1="679.6441931935057" y1="705.14579588356" x2="855.5157410133343" y2="684.2263741818755"></line><line class="link link-subdir link-subdir-directory" x1="679.6441931935057" y1="705.14579588356" x2="934.5578622182151" y2="772.0948461598746"></line><line class="link link-child link-child-module" x1="679.6441931935057" y1="705.14579588356" x2="744.0427117277884" y2="578.6380355231554"></line><line class="link link-child link-child-module" x1="679.6441931935057" y1="705.14579588356" x2="775.6288243732996" y2="716.7015791361296"></line><line class="link link-subdir link-subdir-directory" x1="679.6441931935057" y1="705.14579588356" x2="793.7794130465098" y2="906.4670038334789"></line><line class="link link-subdir link-subdir-directory" x1="679.6441931935057" y1="705.14579588356" x2="491.61725539392444" y2="932.3289413352386"></line><line class="link link-subdir link-subdir-directory" x1="679.6441931935057" y1="705.14579588356" x2="664.883760510741" y2="1023.6795146933663"></line><line class="link link-subdir link-subdir-directory" x1="679.6441931935057" y1="705.14579588356" x2="514.3699278086561" y2="569.0095161135963"></line><line class="link link-child link-child-module" x1="679.6441931935057" y1="705.14579588356" x2="674.8622925433575" y2="613.995706350387"></line><line class="link link-child link-child-module" x1="514.3699278086561" y1="569.0095161135963" x2="617.6946636910654" y2="636.3930955332486"></line><line class="link link-child link-child-module" x1="514.3699278086561" y1="569.0095161135963" x2="469.09591747178445" y2="448.4135060990283"></line><line class="link link-child link-child-module" x1="514.3699278086561" y1="569.0095161135963" x2="424.4647214089386" y2="455.8377371719095"></line><line class="link link-child link-child-module" x1="514.3699278086561" y1="569.0095161135963" x2="635.2056690104674" y2="521.558937513791"></line><line class="link link-child link-child-module" x1="514.3699278086561" y1="569.0095161135963" x2="478.37514202204164" y2="657.91898611227"></line><line class="link link-child link-child-module" x1="514.3699278086561" y1="569.0095161135963" x2="494.5732218014737" y2="707.9838147167904"></line><line class="link link-child link-child-module" x1="514.3699278086561" y1="569.0095161135963" x2="634.9215119232665" y2="430.58558005429825"></line><line class="link link-child link-child-module" x1="514.3699278086561" y1="569.0095161135963" x2="566.6999417680721" y2="475.01678310313616"></line><line class="link link-child link-child-module" x1="514.3699278086561" y1="569.0095161135963" x2="434.4974609885775" y2="691.3303580831789"></line><line class="link link-child link-child-module" x1="514.3699278086561" y1="569.0095161135963" x2="369.42401729523095" y2="589.8153578570633"></line><line class="link link-child link-child-module" x1="514.3699278086561" y1="569.0095161135963" x2="533.7011616046906" y2="437.2918786204235"></line><line class="link link-child link-child-module" x1="514.3699278086561" y1="569.0095161135963" x2="395.4831054891006" y2="523.6163887204334"></line><line class="link link-child link-child-module" x1="514.3699278086561" y1="569.0095161135963" x2="387.3728403018081" y2="639.6736101507939"></line><line class="link link-child link-child-module" x1="514.3699278086561" y1="569.0095161135963" x2="416.3917425059618" y2="600.6624486435607"></line><line class="link link-child link-child-module" x1="664.883760510741" y1="1023.6795146933663" x2="684.1694862213438" y2="1137.0574436662296"></line><line class="link link-child link-child-module" x1="664.883760510741" y1="1023.6795146933663" x2="761.7646153761967" y2="1083.3389900505158"></line><line class="link link-child link-child-module" x1="664.883760510741" y1="1023.6795146933663" x2="810.8838274842391" y2="1060.3671229053107"></line><line class="link link-child link-child-module" x1="664.883760510741" y1="1023.6795146933663" x2="519.780192876135" y2="1043.404368608525"></line><line class="link link-child link-child-module" x1="664.883760510741" y1="1023.6795146933663" x2="683.0936548090083" y2="1185.4394788719367"></line><line class="link link-child link-child-module" x1="664.883760510741" y1="1023.6795146933663" x2="769.592731036509" y2="1135.3081545102862"></line><line class="link link-child link-child-module" x1="664.883760510741" y1="1023.6795146933663" x2="589.39269682177" y2="1117.3171210603887"></line><line class="link link-child link-child-module" x1="664.883760510741" y1="1023.6795146933663" x2="532.0408687906302" y2="981.5138682649493"></line><line class="link link-child link-child-module" x1="664.883760510741" y1="1023.6795146933663" x2="580.8057853080886" y2="968.1094663719555"></line><line class="link link-child link-child-module" x1="491.61725539392444" y1="932.3289413352386" x2="430.36815164483187" y2="1084.7172531996407"></line><line class="link link-child link-child-module" x1="491.61725539392444" y1="932.3289413352386" x2="538.188702157829" y2="862.1076705956449"></line><line class="link link-child link-child-module" x1="491.61725539392444" y1="932.3289413352386" x2="465.73526528257463" y2="821.1801713091774"></line><line class="link link-child link-child-module" x1="491.61725539392444" y1="932.3289413352386" x2="371.1646084977313" y2="1003.4228882892384"></line><line class="link link-child link-child-module" x1="491.61725539392444" y1="932.3289413352386" x2="398.490487416061" y2="922.4157511540038"></line><line class="link link-child link-child-module" x1="793.7794130465098" y1="906.4670038334789" x2="704.8981558952366" y2="950.4176852977372"></line><line class="link link-child link-child-module" x1="934.5578622182151" y1="772.0948461598746" x2="981.5013601892394" y2="691.5074271766889"></line><line class="link link-child link-child-module" x1="934.5578622182151" y1="772.0948461598746" x2="906.5303836982115" y2="850.6578299269698"></line><line class="link link-child link-child-module" x1="387.8199839349584" y1="831.982352771916" x2="264.5484108749934" y2="845.2138519902165"></line><line class="link link-child link-child-module" x1="387.8199839349584" y1="831.982352771916" x2="293.258524946204" y2="926.1107398337517"></line><line class="link link-child link-child-module" x1="387.8199839349584" y1="831.982352771916" x2="268.6937657938023" y2="767.6901707920697"></line><line class="link link-child link-child-module" x1="658.3211055336436" y1="385.603225295007" x2="604.5445043120596" y2="263.1441123960949"></line><line class="link link-child link-child-module" x1="658.3211055336436" y1="385.603225295007" x2="798.7479434067761" y2="370.14678883859335"></line><line class="link link-child link-child-module" x1="658.3211055336436" y1="385.603225295007" x2="740.8881960083836" y2="285.7054306379233"></line><line class="link link-child link-child-module" x1="658.3211055336436" y1="385.603225295007" x2="691.0214364024736" y2="274.3859246449691"></line><line class="link link-child link-child-module" x1="658.3211055336436" y1="385.603225295007" x2="780.7965407130813" y2="325.0435219092162"></line><line class="link link-subdir link-subdir-directory" x1="658.3211055336436" y1="385.603225295007" x2="482.89371964301154" y2="255.41254703850885"></line><line class="link link-subdir link-subdir-directory" x1="658.3211055336436" y1="385.603225295007" x2="955.4787496163672" y2="444.3276059586268"></line><line class="link link-subdir link-subdir-directory" x1="658.3211055336436" y1="385.603225295007" x2="640.454803108471" y2="144.96158944058993"></line><line class="link link-subdir link-subdir-directory" x1="658.3211055336436" y1="385.603225295007" x2="242.8963144332967" y2="566.8951458465149"></line><line class="link link-subdir link-subdir-directory" x1="658.3211055336436" y1="385.603225295007" x2="840.7511164034868" y2="233.31956586973428"></line><line class="link link-subdir link-subdir-directory" x1="658.3211055336436" y1="385.603225295007" x2="408.1615060369798" y2="274.96141361376044"></line><line class="link link-child link-child-module" x1="658.3211055336436" y1="385.603225295007" x2="769.5711998050696" y2="448.3458122522547"></line><line class="link link-child link-child-module" x1="408.1615060369798" y1="274.96141361376044" x2="316.66026286364445" y2="377.9751078046992"></line><line class="link link-child link-child-module" x1="408.1615060369798" y1="274.96141361376044" x2="306.1478534998529" y2="181.22024918656138"></line><line class="link link-child link-child-module" x1="408.1615060369798" y1="274.96141361376044" x2="265.44049551465383" y2="251.29738238558633"></line><line class="link link-child link-child-module" x1="840.7511164034868" y1="233.31956586973428" x2="868.7935329682535" y2="142.45448004419632"></line><line class="link link-child link-child-module" x1="840.7511164034868" y1="233.31956586973428" x2="749.3801180048923" y2="170.25879402027175"></line><line class="link link-child link-child-module" x1="840.7511164034868" y1="233.31956586973428" x2="798.4858021882904" y2="136.2830530833746"></line><line class="link link-child link-child-module" x1="840.7511164034868" y1="233.31956586973428" x2="953.9880481323779" y2="190.41644589353783"></line><line class="link link-child link-child-module" x1="242.8963144332967" y1="566.8951458465149" x2="94.19523723314603" y2="624.74593487306"></line><line class="link link-child link-child-module" x1="242.8963144332967" y1="566.8951458465149" x2="164.58065076022163" y2="634.546980118963"></line><line class="link link-child link-child-module" x1="242.8963144332967" y1="566.8951458465149" x2="237.83374667322752" y2="474.7377509286913"></line><line class="link link-child link-child-module" x1="242.8963144332967" y1="566.8951458465149" x2="188.89847156591446" y2="703.0468064976268"></line><line class="link link-child link-child-module" x1="242.8963144332967" y1="566.8951458465149" x2="88.87761653230413" y2="562.9057532752321"></line><line class="link link-child link-child-module" x1="242.8963144332967" y1="566.8951458465149" x2="137.68190772359281" y2="491.2235926001031"></line><line class="link link-child link-child-module" x1="242.8963144332967" y1="566.8951458465149" x2="124.28402906132634" y2="691.7223526088086"></line><line class="link link-child link-child-module" x1="242.8963144332967" y1="566.8951458465149" x2="160.01484337024814" y2="591.2228389416957"></line><line class="link link-child link-child-module" x1="640.454803108471" y1="144.96158944058993" x2="663.5914585936457" y2="30.772977834007154"></line><line class="link link-child link-child-module" x1="640.454803108471" y1="144.96158944058993" x2="567.4612649629669" y2="44.00265258272725"></line><line class="link link-child link-child-module" x1="955.4787496163672" y1="444.3276059586268" x2="1080.554275178157" y2="487.73598332266755"></line><line class="link link-child link-child-module" x1="955.4787496163672" y1="444.3276059586268" x2="1006.370581051336" y2="524.6994353967677"></line><line class="link link-child link-child-module" x1="955.4787496163672" y1="444.3276059586268" x2="994.2850176348812" y2="360.22359395866494"></line><line class="link link-child link-child-module" x1="955.4787496163672" y1="444.3276059586268" x2="1071.0536143410843" y2="395.2658670278459"></line><line class="link link-child link-child-module" x1="955.4787496163672" y1="444.3276059586268" x2="1007.4750550769218" y2="582.4753788935093"></line><line class="link link-child link-child-module" x1="482.89371964301154" y1="255.41254703850885" x2="362.17082441044766" y2="329.82872704116716"></line><line class="link link-child link-child-module" x1="482.89371964301154" y1="255.41254703850885" x2="365.64081059513734" y2="215.82596078844068"></line><line class="link link-import link-import-module" x1="803.8803720236589" y1="759.0061099020462" x2="757.4034212250432" y2="625.0991160044225"></line><line class="link link-import link-import-module" x1="803.8803720236589" y1="759.0061099020462" x2="568.1141746403251" y2="594.7561025342803"></line><line class="link link-import link-import-module" x1="757.4034212250432" y1="625.0991160044225" x2="601.9187047006375" y2="767.9364909511985"></line><line class="link link-import link-import-module" x1="757.4034212250432" y1="625.0991160044225" x2="568.1141746403251" y2="594.7561025342803"></line><line class="link link-import link-import-module" x1="757.4034212250432" y1="625.0991160044225" x2="478.37514202204164" y2="657.91898611227"></line><line class="link link-import link-import-module" x1="757.4034212250432" y1="625.0991160044225" x2="494.5732218014737" y2="707.9838147167904"></line><line class="link link-import link-import-module" x1="757.4034212250432" y1="625.0991160044225" x2="434.4974609885775" y2="691.3303580831789"></line><line class="link link-import link-import-external" x1="757.4034212250432" y1="625.0991160044225" x2="624.6313018538023" y2="876.7415893781731"></line><line class="link link-import link-import-external" x1="757.4034212250432" y1="625.0991160044225" x2="889.4166897981936" y2="919.574631935454"></line><line class="link link-import link-import-module" x1="601.9187047006375" y1="767.9364909511985" x2="568.1141746403251" y2="594.7561025342803"></line><line class="link link-import link-import-module" x1="601.9187047006375" y1="767.9364909511985" x2="635.2056690104674" y2="521.558937513791"></line><line class="link link-import link-import-module" x1="601.9187047006375" y1="767.9364909511985" x2="478.37514202204164" y2="657.91898611227"></line><line class="link link-import link-import-module" x1="601.9187047006375" y1="767.9364909511985" x2="494.5732218014737" y2="707.9838147167904"></line><line class="link link-import link-import-module" x1="601.9187047006375" y1="767.9364909511985" x2="434.4974609885775" y2="691.3303580831789"></line><line class="link link-import link-import-external" x1="601.9187047006375" y1="767.9364909511985" x2="624.6313018538023" y2="876.7415893781731"></line><line class="link link-import link-import-external" x1="601.9187047006375" y1="767.9364909511985" x2="889.4166897981936" y2="919.574631935454"></line><line class="link link-import link-import-module" x1="832.2533197272762" y1="721.8071527165122" x2="757.4034212250432" y2="625.0991160044225"></line><line class="link link-import link-import-module" x1="832.2533197272762" y1="721.8071527165122" x2="568.1141746403251" y2="594.7561025342803"></line><line class="link link-import link-import-external" x1="568.1141746403251" y1="594.7561025342803" x2="343.3515375894208" y2="775.0835317419325"></line><line class="link link-import link-import-module" x1="568.1141746403251" y1="594.7561025342803" x2="635.2056690104674" y2="521.558937513791"></line><line class="link link-import link-import-module" x1="568.1141746403251" y1="594.7561025342803" x2="494.5732218014737" y2="707.9838147167904"></line><line class="link link-import link-import-module" x1="568.1141746403251" y1="594.7561025342803" x2="566.6999417680721" y2="475.01678310313616"></line><line class="link link-import link-import-module" x1="568.1141746403251" y1="594.7561025342803" x2="478.37514202204164" y2="657.91898611227"></line><line class="link link-import link-import-module" x1="568.1141746403251" y1="594.7561025342803" x2="434.4974609885775" y2="691.3303580831789"></line><line class="link link-import link-import-module" x1="568.1141746403251" y1="594.7561025342803" x2="387.3728403018081" y2="639.6736101507939"></line><line class="link link-import link-import-external" x1="568.1141746403251" y1="594.7561025342803" x2="889.4166897981936" y2="919.574631935454"></line><line class="link link-import link-import-module" x1="568.1141746403251" y1="594.7561025342803" x2="369.42401729523095" y2="589.8153578570633"></line><line class="link link-import link-import-module" x1="599.8237692630742" y1="803.0735158410537" x2="568.1141746403251" y2="594.7561025342803"></line><line class="link link-import link-import-module" x1="599.8237692630742" y1="803.0735158410537" x2="570.8384518447203" y2="727.0264346192337"></line><line class="link link-import link-import-module" x1="599.8237692630742" y1="803.0735158410537" x2="635.2056690104674" y2="521.558937513791"></line><line class="link link-import link-import-module" x1="599.8237692630742" y1="803.0735158410537" x2="369.42401729523095" y2="589.8153578570633"></line><line class="link link-import link-import-module" x1="767.8891611921996" y1="825.9243890095503" x2="478.37514202204164" y2="657.91898611227"></line><line class="link link-import link-import-module" x1="807.962516633076" y1="611.0394412301515" x2="434.4974609885775" y2="691.3303580831789"></line><line class="link link-import link-import-external" x1="819.9136033248195" y1="661.7211359009759" x2="624.6313018538023" y2="876.7415893781731"></line><line class="link link-import link-import-module" x1="698.9126280502552" y1="820.2036943405963" x2="568.1141746403251" y2="594.7561025342803"></line><line class="link link-import link-import-external" x1="729.2587046683751" y1="852.4662390611517" x2="889.4166897981936" y2="919.574631935454"></line><line class="link link-import link-import-external" x1="570.8384518447203" y1="727.0264346192337" x2="624.6313018538023" y2="876.7415893781731"></line><line class="link link-import link-import-module" x1="570.8384518447203" y1="727.0264346192337" x2="635.2056690104674" y2="521.558937513791"></line><line class="link link-import link-import-module" x1="570.8384518447203" y1="727.0264346192337" x2="494.5732218014737" y2="707.9838147167904"></line><line class="link link-import link-import-module" x1="570.8384518447203" y1="727.0264346192337" x2="434.4974609885775" y2="691.3303580831789"></line><line class="link link-import link-import-module" x1="570.8384518447203" y1="727.0264346192337" x2="568.1141746403251" y2="594.7561025342803"></line><line class="link link-import link-import-module" x1="570.8384518447203" y1="727.0264346192337" x2="832.2533197272762" y2="721.8071527165122"></line><line class="link link-import link-import-module" x1="586.6702549784101" y1="675.057947316291" x2="568.1141746403251" y2="594.7561025342803"></line><line class="link link-import link-import-external" x1="586.6702549784101" y1="675.057947316291" x2="624.6313018538023" y2="876.7415893781731"></line><line class="link link-import link-import-external" x1="586.6702549784101" y1="675.057947316291" x2="343.3515375894208" y2="775.0835317419325"></line><line class="link link-import link-import-module" x1="586.6702549784101" y1="675.057947316291" x2="478.37514202204164" y2="657.91898611227"></line><line class="link link-import link-import-module" x1="586.6702549784101" y1="675.057947316291" x2="635.2056690104674" y2="521.558937513791"></line><line class="link link-import link-import-module" x1="586.6702549784101" y1="675.057947316291" x2="494.5732218014737" y2="707.9838147167904"></line><line class="link link-import link-import-module" x1="586.6702549784101" y1="675.057947316291" x2="566.6999417680721" y2="475.01678310313616"></line><line class="link link-import link-import-module" x1="586.6702549784101" y1="675.057947316291" x2="617.6946636910654" y2="636.3930955332486"></line><line class="link link-import link-import-module" x1="586.6702549784101" y1="675.057947316291" x2="434.4974609885775" y2="691.3303580831789"></line><line class="link link-import link-import-module" x1="586.6702549784101" y1="675.057947316291" x2="387.3728403018081" y2="639.6736101507939"></line><line class="link link-import link-import-module" x1="586.6702549784101" y1="675.057947316291" x2="395.4831054891006" y2="523.6163887204334"></line><line class="link link-import link-import-module" x1="586.6702549784101" y1="675.057947316291" x2="469.09591747178445" y2="448.4135060990283"></line><line class="link link-import link-import-module" x1="586.6702549784101" y1="675.057947316291" x2="533.7011616046906" y2="437.2918786204235"></line><line class="link link-import link-import-module" x1="586.6702549784101" y1="675.057947316291" x2="819.9136033248195" y2="661.7211359009759"></line><line class="link link-import link-import-module" x1="586.6702549784101" y1="675.057947316291" x2="729.2587046683751" y2="852.4662390611517"></line><line class="link link-import link-import-external" x1="586.6702549784101" y1="675.057947316291" x2="395.53603106067715" y2="149.4488397551548"></line><line class="link link-import link-import-external" x1="586.6702549784101" y1="675.057947316291" x2="889.4166897981936" y2="919.574631935454"></line><line class="link link-import link-import-module" x1="586.6702549784101" y1="675.057947316291" x2="369.42401729523095" y2="589.8153578570633"></line><line class="link link-import link-import-module" x1="586.6702549784101" y1="675.057947316291" x2="769.592731036509" y2="1135.3081545102862"></line><line class="link link-import link-import-module" x1="586.6702549784101" y1="675.057947316291" x2="371.1646084977313" y2="1003.4228882892384"></line><line class="link link-import link-import-module" x1="586.6702549784101" y1="675.057947316291" x2="744.0427117277884" y2="578.6380355231554"></line><line class="link link-import link-import-module" x1="586.6702549784101" y1="675.057947316291" x2="519.780192876135" y2="1043.404368608525"></line><line class="link link-import link-import-module" x1="586.6702549784101" y1="675.057947316291" x2="698.9126280502552" y2="820.2036943405963"></line><line class="link link-import link-import-module" x1="586.6702549784101" y1="675.057947316291" x2="803.8803720236589" y2="759.0061099020462"></line><line class="link link-import link-import-module" x1="586.6702549784101" y1="675.057947316291" x2="604.5445043120596" y2="263.1441123960949"></line><line class="link link-import link-import-module" x1="586.6702549784101" y1="675.057947316291" x2="599.8237692630742" y2="803.0735158410537"></line><line class="link link-import link-import-module" x1="586.6702549784101" y1="675.057947316291" x2="532.0408687906302" y2="981.5138682649493"></line><line class="link link-import link-import-module" x1="586.6702549784101" y1="675.057947316291" x2="570.8384518447203" y2="727.0264346192337"></line><line class="link link-import link-import-module" x1="586.6702549784101" y1="675.057947316291" x2="398.490487416061" y2="922.4157511540038"></line><line class="link link-import link-import-module" x1="586.6702549784101" y1="675.057947316291" x2="465.73526528257463" y2="821.1801713091774"></line><line class="link link-import link-import-module" x1="855.5157410133343" y1="684.2263741818755" x2="586.6702549784101" y2="675.057947316291"></line><line class="link link-import link-import-module" x1="744.0427117277884" y1="578.6380355231554" x2="601.9187047006375" y2="767.9364909511985"></line><line class="link link-import link-import-module" x1="744.0427117277884" y1="578.6380355231554" x2="568.1141746403251" y2="594.7561025342803"></line><line class="link link-import link-import-module" x1="744.0427117277884" y1="578.6380355231554" x2="494.5732218014737" y2="707.9838147167904"></line><line class="link link-import link-import-module" x1="744.0427117277884" y1="578.6380355231554" x2="635.2056690104674" y2="521.558937513791"></line><line class="link link-import link-import-module" x1="744.0427117277884" y1="578.6380355231554" x2="617.6946636910654" y2="636.3930955332486"></line><line class="link link-import link-import-module" x1="775.6288243732996" y1="716.7015791361296" x2="478.37514202204164" y2="657.91898611227"></line><line class="link link-import link-import-external" x1="775.6288243732996" y1="716.7015791361296" x2="624.6313018538023" y2="876.7415893781731"></line><line class="link link-import link-import-external" x1="775.6288243732996" y1="716.7015791361296" x2="343.3515375894208" y2="775.0835317419325"></line><line class="link link-import link-import-external" x1="674.8622925433575" y1="613.995706350387" x2="624.6313018538023" y2="876.7415893781731"></line><line class="link link-import link-import-module" x1="674.8622925433575" y1="613.995706350387" x2="775.6288243732996" y2="716.7015791361296"></line><line class="link link-import link-import-module" x1="674.8622925433575" y1="613.995706350387" x2="533.7011616046906" y2="437.2918786204235"></line><line class="link link-import link-import-module" x1="674.8622925433575" y1="613.995706350387" x2="568.1141746403251" y2="594.7561025342803"></line><line class="link link-import link-import-module" x1="674.8622925433575" y1="613.995706350387" x2="767.8891611921996" y2="825.9243890095503"></line><line class="link link-import link-import-module" x1="674.8622925433575" y1="613.995706350387" x2="478.37514202204164" y2="657.91898611227"></line><line class="link link-import link-import-module" x1="674.8622925433575" y1="613.995706350387" x2="586.6702549784101" y2="675.057947316291"></line><line class="link link-import link-import-module" x1="674.8622925433575" y1="613.995706350387" x2="855.5157410133343" y2="684.2263741818755"></line><line class="link link-import link-import-module" x1="674.8622925433575" y1="613.995706350387" x2="369.42401729523095" y2="589.8153578570633"></line><line class="link link-import link-import-module" x1="674.8622925433575" y1="613.995706350387" x2="494.5732218014737" y2="707.9838147167904"></line><line class="link link-import link-import-module" x1="674.8622925433575" y1="613.995706350387" x2="580.8057853080886" y2="968.1094663719555"></line><line class="link link-import link-import-external" x1="674.8622925433575" y1="613.995706350387" x2="889.4166897981936" y2="919.574631935454"></line><line class="link link-import link-import-module" x1="674.8622925433575" y1="613.995706350387" x2="395.4831054891006" y2="523.6163887204334"></line><line class="link link-import link-import-module" x1="674.8622925433575" y1="613.995706350387" x2="634.9215119232665" y2="430.58558005429825"></line><line class="link link-import link-import-module" x1="674.8622925433575" y1="613.995706350387" x2="434.4974609885775" y2="691.3303580831789"></line><line class="link link-import link-import-module" x1="674.8622925433575" y1="613.995706350387" x2="635.2056690104674" y2="521.558937513791"></line><line class="link link-import link-import-module" x1="674.8622925433575" y1="613.995706350387" x2="617.6946636910654" y2="636.3930955332486"></line><line class="link link-import link-import-module" x1="674.8622925433575" y1="613.995706350387" x2="416.3917425059618" y2="600.6624486435607"></line><line class="link link-import link-import-module" x1="674.8622925433575" y1="613.995706350387" x2="807.962516633076" y2="611.0394412301515"></line><line class="link link-import link-import-external" x1="674.8622925433575" y1="613.995706350387" x2="176.63176274765772" y2="1002.5396685494428"></line><line class="link link-import link-import-module" x1="674.8622925433575" y1="613.995706350387" x2="424.4647214089386" y2="455.8377371719095"></line><line class="link link-import link-import-external" x1="674.8622925433575" y1="613.995706350387" x2="172.5083800244942" y2="337.2080320779295"></line><line class="link link-import link-import-module" x1="674.8622925433575" y1="613.995706350387" x2="398.490487416061" y2="922.4157511540038"></line><line class="link link-import link-import-module" x1="674.8622925433575" y1="613.995706350387" x2="465.73526528257463" y2="821.1801713091774"></line><line class="link link-import link-import-module" x1="674.8622925433575" y1="613.995706350387" x2="538.188702157829" y2="862.1076705956449"></line><line class="link link-import link-import-external" x1="617.6946636910654" y1="636.3930955332486" x2="624.6313018538023" y2="876.7415893781731"></line><line class="link link-import link-import-external" x1="617.6946636910654" y1="636.3930955332486" x2="343.3515375894208" y2="775.0835317419325"></line><line class="link link-import link-import-module" x1="469.09591747178445" y1="448.4135060990283" x2="395.4831054891006" y2="523.6163887204334"></line><line class="link link-import link-import-module" x1="424.4647214089386" y1="455.8377371719095" x2="434.4974609885775" y2="691.3303580831789"></line><line class="link link-import link-import-external" x1="635.2056690104674" y1="521.558937513791" x2="624.6313018538023" y2="876.7415893781731"></line><line class="link link-import link-import-external" x1="635.2056690104674" y1="521.558937513791" x2="343.3515375894208" y2="775.0835317419325"></line><line class="link link-import link-import-module" x1="635.2056690104674" y1="521.558937513791" x2="566.6999417680721" y2="475.01678310313616"></line><line class="link link-import link-import-module" x1="635.2056690104674" y1="521.558937513791" x2="434.4974609885775" y2="691.3303580831789"></line><line class="link link-import link-import-external" x1="635.2056690104674" y1="521.558937513791" x2="1176.2056334104725" y2="872.9683219839309"></line><line class="link link-import link-import-module" x1="478.37514202204164" y1="657.91898611227" x2="635.2056690104674" y2="521.558937513791"></line><line class="link link-import link-import-module" x1="478.37514202204164" y1="657.91898611227" x2="566.6999417680721" y2="475.01678310313616"></line><line class="link link-import link-import-external" x1="478.37514202204164" y1="657.91898611227" x2="343.3515375894208" y2="775.0835317419325"></line><line class="link link-import link-import-external" x1="478.37514202204164" y1="657.91898611227" x2="624.6313018538023" y2="876.7415893781731"></line><line class="link link-import link-import-module" x1="494.5732218014737" y1="707.9838147167904" x2="566.6999417680721" y2="475.01678310313616"></line><line class="link link-import link-import-external" x1="434.4974609885775" y1="691.3303580831789" x2="343.3515375894208" y2="775.0835317419325"></line><line class="link link-import link-import-external" x1="369.42401729523095" y1="589.8153578570633" x2="176.63176274765772" y2="1002.5396685494428"></line><line class="link link-import link-import-external" x1="533.7011616046906" y1="437.2918786204235" x2="624.6313018538023" y2="876.7415893781731"></line><line class="link link-import link-import-module" x1="395.4831054891006" y1="523.6163887204334" x2="434.4974609885775" y2="691.3303580831789"></line><line class="link link-import link-import-external" x1="416.3917425059618" y1="600.6624486435607" x2="624.6313018538023" y2="876.7415893781731"></line><line class="link link-import link-import-external" x1="416.3917425059618" y1="600.6624486435607" x2="343.3515375894208" y2="775.0835317419325"></line><line class="link link-import link-import-module" x1="684.1694862213438" y1="1137.0574436662296" x2="617.6946636910654" y2="636.3930955332486"></line><line class="link link-import link-import-external" x1="684.1694862213438" y1="1137.0574436662296" x2="624.6313018538023" y2="876.7415893781731"></line><line class="link link-import link-import-module" x1="761.7646153761967" y1="1083.3389900505158" x2="617.6946636910654" y2="636.3930955332486"></line><line class="link link-import link-import-external" x1="761.7646153761967" y1="1083.3389900505158" x2="624.6313018538023" y2="876.7415893781731"></line><line class="link link-import link-import-module" x1="761.7646153761967" y1="1083.3389900505158" x2="767.8891611921996" y2="825.9243890095503"></line><line class="link link-import link-import-module" x1="761.7646153761967" y1="1083.3389900505158" x2="580.8057853080886" y2="968.1094663719555"></line><line class="link link-import link-import-module" x1="810.8838274842391" y1="1060.3671229053107" x2="617.6946636910654" y2="636.3930955332486"></line><line class="link link-import link-import-external" x1="810.8838274842391" y1="1060.3671229053107" x2="624.6313018538023" y2="876.7415893781731"></line><line class="link link-import link-import-module" x1="519.780192876135" y1="1043.404368608525" x2="568.1141746403251" y2="594.7561025342803"></line><line class="link link-import link-import-module" x1="519.780192876135" y1="1043.404368608525" x2="268.6937657938023" y2="767.6901707920697"></line><line class="link link-import link-import-module" x1="519.780192876135" y1="1043.404368608525" x2="293.258524946204" y2="926.1107398337517"></line><line class="link link-import link-import-module" x1="519.780192876135" y1="1043.404368608525" x2="264.5484108749934" y2="845.2138519902165"></line><line class="link link-import link-import-module" x1="519.780192876135" y1="1043.404368608525" x2="494.5732218014737" y2="707.9838147167904"></line><line class="link link-import link-import-external" x1="519.780192876135" y1="1043.404368608525" x2="624.6313018538023" y2="876.7415893781731"></line><line class="link link-import link-import-external" x1="519.780192876135" y1="1043.404368608525" x2="343.3515375894208" y2="775.0835317419325"></line><line class="link link-import link-import-module" x1="589.39269682177" y1="1117.3171210603887" x2="767.8891611921996" y2="825.9243890095503"></line><line class="link link-import link-import-module" x1="589.39269682177" y1="1117.3171210603887" x2="494.5732218014737" y2="707.9838147167904"></line><line class="link link-import link-import-module" x1="589.39269682177" y1="1117.3171210603887" x2="617.6946636910654" y2="636.3930955332486"></line><line class="link link-import link-import-external" x1="589.39269682177" y1="1117.3171210603887" x2="624.6313018538023" y2="876.7415893781731"></line><line class="link link-import link-import-module" x1="532.0408687906302" y1="981.5138682649493" x2="568.1141746403251" y2="594.7561025342803"></line><line class="link link-import link-import-module" x1="532.0408687906302" y1="981.5138682649493" x2="478.37514202204164" y2="657.91898611227"></line><line class="link link-import link-import-module" x1="532.0408687906302" y1="981.5138682649493" x2="494.5732218014737" y2="707.9838147167904"></line><line class="link link-import link-import-module" x1="532.0408687906302" y1="981.5138682649493" x2="434.4974609885775" y2="691.3303580831789"></line><line class="link link-import link-import-external" x1="532.0408687906302" y1="981.5138682649493" x2="395.53603106067715" y2="149.4488397551548"></line><line class="link link-import link-import-external" x1="532.0408687906302" y1="981.5138682649493" x2="343.3515375894208" y2="775.0835317419325"></line><line class="link link-import link-import-module" x1="580.8057853080886" y1="968.1094663719555" x2="810.8838274842391" y2="1060.3671229053107"></line><line class="link link-import link-import-module" x1="580.8057853080886" y1="968.1094663719555" x2="494.5732218014737" y2="707.9838147167904"></line><line class="link link-import link-import-module" x1="580.8057853080886" y1="968.1094663719555" x2="566.6999417680721" y2="475.01678310313616"></line><line class="link link-import link-import-module" x1="580.8057853080886" y1="968.1094663719555" x2="617.6946636910654" y2="636.3930955332486"></line><line class="link link-import link-import-module" x1="580.8057853080886" y1="968.1094663719555" x2="683.0936548090083" y2="1185.4394788719367"></line><line class="link link-import link-import-module" x1="580.8057853080886" y1="968.1094663719555" x2="434.4974609885775" y2="691.3303580831789"></line><line class="link link-import link-import-module" x1="580.8057853080886" y1="968.1094663719555" x2="767.8891611921996" y2="825.9243890095503"></line><line class="link link-import link-import-external" x1="580.8057853080886" y1="968.1094663719555" x2="624.6313018538023" y2="876.7415893781731"></line><line class="link link-import link-import-external" x1="580.8057853080886" y1="968.1094663719555" x2="343.3515375894208" y2="775.0835317419325"></line><line class="link link-import link-import-module" x1="580.8057853080886" y1="968.1094663719555" x2="416.3917425059618" y2="600.6624486435607"></line><line class="link link-import link-import-external" x1="580.8057853080886" y1="968.1094663719555" x2="172.5083800244942" y2="337.2080320779295"></line><line class="link link-import link-import-module" x1="538.188702157829" y1="862.1076705956449" x2="398.490487416061" y2="922.4157511540038"></line><line class="link link-import link-import-module" x1="538.188702157829" y1="862.1076705956449" x2="635.2056690104674" y2="521.558937513791"></line><line class="link link-import link-import-module" x1="538.188702157829" y1="862.1076705956449" x2="416.3917425059618" y2="600.6624486435607"></line><line class="link link-import link-import-module" x1="538.188702157829" y1="862.1076705956449" x2="395.4831054891006" y2="523.6163887204334"></line><line class="link link-import link-import-module" x1="538.188702157829" y1="862.1076705956449" x2="430.36815164483187" y2="1084.7172531996407"></line><line class="link link-import link-import-module" x1="538.188702157829" y1="862.1076705956449" x2="568.1141746403251" y2="594.7561025342803"></line><line class="link link-import link-import-external" x1="538.188702157829" y1="862.1076705956449" x2="343.3515375894208" y2="775.0835317419325"></line><line class="link link-import link-import-external" x1="538.188702157829" y1="862.1076705956449" x2="889.4166897981936" y2="919.574631935454"></line><line class="link link-import link-import-module" x1="465.73526528257463" y1="821.1801713091774" x2="398.490487416061" y2="922.4157511540038"></line><line class="link link-import link-import-module" x1="465.73526528257463" y1="821.1801713091774" x2="568.1141746403251" y2="594.7561025342803"></line><line class="link link-import link-import-module" x1="465.73526528257463" y1="821.1801713091774" x2="635.2056690104674" y2="521.558937513791"></line><line class="link link-import link-import-module" x1="465.73526528257463" y1="821.1801713091774" x2="416.3917425059618" y2="600.6624486435607"></line><line class="link link-import link-import-module" x1="465.73526528257463" y1="821.1801713091774" x2="494.5732218014737" y2="707.9838147167904"></line><line class="link link-import link-import-module" x1="465.73526528257463" y1="821.1801713091774" x2="434.4974609885775" y2="691.3303580831789"></line><line class="link link-import link-import-module" x1="465.73526528257463" y1="821.1801713091774" x2="617.6946636910654" y2="636.3930955332486"></line><line class="link link-import link-import-external" x1="465.73526528257463" y1="821.1801713091774" x2="624.6313018538023" y2="876.7415893781731"></line><line class="link link-import link-import-external" x1="465.73526528257463" y1="821.1801713091774" x2="343.3515375894208" y2="775.0835317419325"></line><line class="link link-import link-import-external" x1="465.73526528257463" y1="821.1801713091774" x2="889.4166897981936" y2="919.574631935454"></line><line class="link link-import link-import-module" x1="465.73526528257463" y1="821.1801713091774" x2="369.42401729523095" y2="589.8153578570633"></line><line class="link link-import link-import-module" x1="371.1646084977313" y1="1003.4228882892384" x2="568.1141746403251" y2="594.7561025342803"></line><line class="link link-import link-import-module" x1="371.1646084977313" y1="1003.4228882892384" x2="398.490487416061" y2="922.4157511540038"></line><line class="link link-import link-import-external" x1="371.1646084977313" y1="1003.4228882892384" x2="343.3515375894208" y2="775.0835317419325"></line><line class="link link-import link-import-module" x1="371.1646084977313" y1="1003.4228882892384" x2="387.3728403018081" y2="639.6736101507939"></line><line class="link link-import link-import-module" x1="398.490487416061" y1="922.4157511540038" x2="568.1141746403251" y2="594.7561025342803"></line><line class="link link-import link-import-module" x1="398.490487416061" y1="922.4157511540038" x2="761.7646153761967" y2="1083.3389900505158"></line><line class="link link-import link-import-module" x1="398.490487416061" y1="922.4157511540038" x2="684.1694862213438" y2="1137.0574436662296"></line><line class="link link-import link-import-module" x1="398.490487416061" y1="922.4157511540038" x2="369.42401729523095" y2="589.8153578570633"></line><line class="link link-import link-import-module" x1="398.490487416061" y1="922.4157511540038" x2="580.8057853080886" y2="968.1094663719555"></line><line class="link link-import link-import-module" x1="398.490487416061" y1="922.4157511540038" x2="589.39269682177" y2="1117.3171210603887"></line><line class="link link-import link-import-module" x1="398.490487416061" y1="922.4157511540038" x2="494.5732218014737" y2="707.9838147167904"></line><line class="link link-import link-import-module" x1="398.490487416061" y1="922.4157511540038" x2="434.4974609885775" y2="691.3303580831789"></line><line class="link link-import link-import-module" x1="398.490487416061" y1="922.4157511540038" x2="395.4831054891006" y2="523.6163887204334"></line><line class="link link-import link-import-module" x1="398.490487416061" y1="922.4157511540038" x2="469.09591747178445" y2="448.4135060990283"></line><line class="link link-import link-import-module" x1="398.490487416061" y1="922.4157511540038" x2="729.2587046683751" y2="852.4662390611517"></line><line class="link link-import link-import-external" x1="398.490487416061" y1="922.4157511540038" x2="343.3515375894208" y2="775.0835317419325"></line><line class="link link-import link-import-external" x1="398.490487416061" y1="922.4157511540038" x2="624.6313018538023" y2="876.7415893781731"></line><line class="link link-import link-import-module" x1="704.8981558952366" y1="950.4176852977372" x2="568.1141746403251" y2="594.7561025342803"></line><line class="link link-import link-import-module" x1="704.8981558952366" y1="950.4176852977372" x2="635.2056690104674" y2="521.558937513791"></line><line class="link link-import link-import-external" x1="704.8981558952366" y1="950.4176852977372" x2="624.6313018538023" y2="876.7415893781731"></line><line class="link link-import link-import-external" x1="704.8981558952366" y1="950.4176852977372" x2="889.4166897981936" y2="919.574631935454"></line><line class="link link-import link-import-module" x1="981.5013601892394" y1="691.5074271766889" x2="601.9187047006375" y2="767.9364909511985"></line><line class="link link-import link-import-module" x1="981.5013601892394" y1="691.5074271766889" x2="568.1141746403251" y2="594.7561025342803"></line><line class="link link-import link-import-module" x1="981.5013601892394" y1="691.5074271766889" x2="906.5303836982115" y2="850.6578299269698"></line><line class="link link-import link-import-module" x1="981.5013601892394" y1="691.5074271766889" x2="635.2056690104674" y2="521.558937513791"></line><line class="link link-import link-import-module" x1="981.5013601892394" y1="691.5074271766889" x2="494.5732218014737" y2="707.9838147167904"></line><line class="link link-import link-import-module" x1="981.5013601892394" y1="691.5074271766889" x2="387.3728403018081" y2="639.6736101507939"></line><line class="link link-import link-import-module" x1="906.5303836982115" y1="850.6578299269698" x2="568.1141746403251" y2="594.7561025342803"></line><line class="link link-import link-import-module" x1="906.5303836982115" y1="850.6578299269698" x2="635.2056690104674" y2="521.558937513791"></line><line class="link link-import link-import-module" x1="906.5303836982115" y1="850.6578299269698" x2="494.5732218014737" y2="707.9838147167904"></line><line class="link link-import link-import-module" x1="906.5303836982115" y1="850.6578299269698" x2="478.37514202204164" y2="657.91898611227"></line><line class="link link-import link-import-module" x1="264.5484108749934" y1="845.2138519902165" x2="601.9187047006375" y2="767.9364909511985"></line><line class="link link-import link-import-module" x1="264.5484108749934" y1="845.2138519902165" x2="568.1141746403251" y2="594.7561025342803"></line><line class="link link-import link-import-module" x1="264.5484108749934" y1="845.2138519902165" x2="268.6937657938023" y2="767.6901707920697"></line><line class="link link-import link-import-module" x1="264.5484108749934" y1="845.2138519902165" x2="635.2056690104674" y2="521.558937513791"></line><line class="link link-import link-import-module" x1="264.5484108749934" y1="845.2138519902165" x2="494.5732218014737" y2="707.9838147167904"></line><line class="link link-import link-import-module" x1="264.5484108749934" y1="845.2138519902165" x2="387.3728403018081" y2="639.6736101507939"></line><line class="link link-import link-import-module" x1="293.258524946204" y1="926.1107398337517" x2="601.9187047006375" y2="767.9364909511985"></line><line class="link link-import link-import-module" x1="293.258524946204" y1="926.1107398337517" x2="568.1141746403251" y2="594.7561025342803"></line><line class="link link-import link-import-external" x1="293.258524946204" y1="926.1107398337517" x2="889.4166897981936" y2="919.574631935454"></line><line class="link link-import link-import-module" x1="268.6937657938023" y1="767.6901707920697" x2="568.1141746403251" y2="594.7561025342803"></line><line class="link link-import link-import-module" x1="268.6937657938023" y1="767.6901707920697" x2="635.2056690104674" y2="521.558937513791"></line><line class="link link-import link-import-module" x1="268.6937657938023" y1="767.6901707920697" x2="494.5732218014737" y2="707.9838147167904"></line><line class="link link-import link-import-module" x1="268.6937657938023" y1="767.6901707920697" x2="478.37514202204164" y2="657.91898611227"></line><line class="link link-import link-import-module" x1="604.5445043120596" y1="263.1441123960949" x2="568.1141746403251" y2="594.7561025342803"></line><line class="link link-import link-import-module" x1="604.5445043120596" y1="263.1441123960949" x2="780.7965407130813" y2="325.0435219092162"></line><line class="link link-import link-import-module" x1="604.5445043120596" y1="263.1441123960949" x2="868.7935329682535" y2="142.45448004419632"></line><line class="link link-import link-import-module" x1="604.5445043120596" y1="263.1441123960949" x2="749.3801180048923" y2="170.25879402027175"></line><line class="link link-import link-import-module" x1="604.5445043120596" y1="263.1441123960949" x2="953.9880481323779" y2="190.41644589353783"></line><line class="link link-import link-import-module" x1="604.5445043120596" y1="263.1441123960949" x2="798.4858021882904" y2="136.2830530833746"></line><line class="link link-import link-import-module" x1="604.5445043120596" y1="263.1441123960949" x2="740.8881960083836" y2="285.7054306379233"></line><line class="link link-import link-import-module" x1="604.5445043120596" y1="263.1441123960949" x2="1071.0536143410843" y2="395.2658670278459"></line><line class="link link-import link-import-module" x1="604.5445043120596" y1="263.1441123960949" x2="798.7479434067761" y2="370.14678883859335"></line><line class="link link-import link-import-module" x1="604.5445043120596" y1="263.1441123960949" x2="306.1478534998529" y2="181.22024918656138"></line><line class="link link-import link-import-module" x1="604.5445043120596" y1="263.1441123960949" x2="769.5711998050696" y2="448.3458122522547"></line><line class="link link-import link-import-module" x1="604.5445043120596" y1="263.1441123960949" x2="691.0214364024736" y2="274.3859246449691"></line><line class="link link-import link-import-module" x1="604.5445043120596" y1="263.1441123960949" x2="237.83374667322752" y2="474.7377509286913"></line><line class="link link-import link-import-module" x1="604.5445043120596" y1="263.1441123960949" x2="137.68190772359281" y2="491.2235926001031"></line><line class="link link-import link-import-module" x1="604.5445043120596" y1="263.1441123960949" x2="164.58065076022163" y2="634.546980118963"></line><line class="link link-import link-import-module" x1="604.5445043120596" y1="263.1441123960949" x2="362.17082441044766" y2="329.82872704116716"></line><line class="link link-import link-import-module" x1="604.5445043120596" y1="263.1441123960949" x2="663.5914585936457" y2="30.772977834007154"></line><line class="link link-import link-import-module" x1="798.7479434067761" y1="370.14678883859335" x2="757.4034212250432" y2="625.0991160044225"></line><line class="link link-import link-import-module" x1="798.7479434067761" y1="370.14678883859335" x2="568.1141746403251" y2="594.7561025342803"></line><line class="link link-import link-import-module" x1="740.8881960083836" y1="285.7054306379233" x2="568.1141746403251" y2="594.7561025342803"></line><line class="link link-import link-import-module" x1="740.8881960083836" y1="285.7054306379233" x2="635.2056690104674" y2="521.558937513791"></line><line class="link link-import link-import-module" x1="691.0214364024736" y1="274.3859246449691" x2="757.4034212250432" y2="625.0991160044225"></line><line class="link link-import link-import-module" x1="691.0214364024736" y1="274.3859246449691" x2="568.1141746403251" y2="594.7561025342803"></line><line class="link link-import link-import-module" x1="691.0214364024736" y1="274.3859246449691" x2="635.2056690104674" y2="521.558937513791"></line><line class="link link-import link-import-module" x1="780.7965407130813" y1="325.0435219092162" x2="757.4034212250432" y2="625.0991160044225"></line><line class="link link-import link-import-module" x1="780.7965407130813" y1="325.0435219092162" x2="568.1141746403251" y2="594.7561025342803"></line><line class="link link-import link-import-module" x1="769.5711998050696" y1="448.3458122522547" x2="494.5732218014737" y2="707.9838147167904"></line><line class="link link-import link-import-module" x1="769.5711998050696" y1="448.3458122522547" x2="568.1141746403251" y2="594.7561025342803"></line><line class="link link-import link-import-module" x1="769.5711998050696" y1="448.3458122522547" x2="906.5303836982115" y2="850.6578299269698"></line><line class="link link-import link-import-module" x1="769.5711998050696" y1="448.3458122522547" x2="981.5013601892394" y2="691.5074271766889"></line><line class="link link-import link-import-module" x1="769.5711998050696" y1="448.3458122522547" x2="691.0214364024736" y2="274.3859246449691"></line><line class="link link-import link-import-module" x1="769.5711998050696" y1="448.3458122522547" x2="316.66026286364445" y2="377.9751078046992"></line><line class="link link-import link-import-external" x1="769.5711998050696" y1="448.3458122522547" x2="624.6313018538023" y2="876.7415893781731"></line><line class="link link-import link-import-module" x1="316.66026286364445" y1="377.9751078046992" x2="704.8981558952366" y2="950.4176852977372"></line><line class="link link-import link-import-module" x1="316.66026286364445" y1="377.9751078046992" x2="568.1141746403251" y2="594.7561025342803"></line><line class="link link-import link-import-module" x1="316.66026286364445" y1="377.9751078046992" x2="494.5732218014737" y2="707.9838147167904"></line><line class="link link-import link-import-module" x1="316.66026286364445" y1="377.9751078046992" x2="265.44049551465383" y2="251.29738238558633"></line><line class="link link-import link-import-module" x1="306.1478534998529" y1="181.22024918656138" x2="568.1141746403251" y2="594.7561025342803"></line><line class="link link-import link-import-module" x1="306.1478534998529" y1="181.22024918656138" x2="316.66026286364445" y2="377.9751078046992"></line><line class="link link-import link-import-module" x1="265.44049551465383" y1="251.29738238558633" x2="568.1141746403251" y2="594.7561025342803"></line><line class="link link-import link-import-module" x1="868.7935329682535" y1="142.45448004419632" x2="568.1141746403251" y2="594.7561025342803"></line><line class="link link-import link-import-module" x1="868.7935329682535" y1="142.45448004419632" x2="635.2056690104674" y2="521.558937513791"></line><line class="link link-import link-import-module" x1="868.7935329682535" y1="142.45448004419632" x2="634.9215119232665" y2="430.58558005429825"></line><line class="link link-import link-import-module" x1="749.3801180048923" y1="170.25879402027175" x2="568.1141746403251" y2="594.7561025342803"></line><line class="link link-import link-import-module" x1="749.3801180048923" y1="170.25879402027175" x2="635.2056690104674" y2="521.558937513791"></line><line class="link link-import link-import-module" x1="749.3801180048923" y1="170.25879402027175" x2="634.9215119232665" y2="430.58558005429825"></line><line class="link link-import link-import-module" x1="798.4858021882904" y1="136.2830530833746" x2="568.1141746403251" y2="594.7561025342803"></line><line class="link link-import link-import-module" x1="798.4858021882904" y1="136.2830530833746" x2="635.2056690104674" y2="521.558937513791"></line><line class="link link-import link-import-module" x1="798.4858021882904" y1="136.2830530833746" x2="634.9215119232665" y2="430.58558005429825"></line><line class="link link-import link-import-module" x1="953.9880481323779" y1="190.41644589353783" x2="568.1141746403251" y2="594.7561025342803"></line><line class="link link-import link-import-module" x1="94.19523723314603" y1="624.74593487306" x2="160.01484337024814" y2="591.2228389416957"></line><line class="link link-import link-import-module" x1="94.19523723314603" y1="624.74593487306" x2="568.1141746403251" y2="594.7561025342803"></line><line class="link link-import link-import-module" x1="164.58065076022163" y1="634.546980118963" x2="124.28402906132634" y2="691.7223526088086"></line><line class="link link-import link-import-module" x1="164.58065076022163" y1="634.546980118963" x2="568.1141746403251" y2="594.7561025342803"></line><line class="link link-import link-import-module" x1="164.58065076022163" y1="634.546980118963" x2="94.19523723314603" y2="624.74593487306"></line><line class="link link-import link-import-module" x1="237.83374667322752" y1="474.7377509286913" x2="124.28402906132634" y2="691.7223526088086"></line><line class="link link-import link-import-module" x1="237.83374667322752" y1="474.7377509286913" x2="568.1141746403251" y2="594.7561025342803"></line><line class="link link-import link-import-module" x1="237.83374667322752" y1="474.7377509286913" x2="160.01484337024814" y2="591.2228389416957"></line><line class="link link-import link-import-module" x1="237.83374667322752" y1="474.7377509286913" x2="188.89847156591446" y2="703.0468064976268"></line><line class="link link-import link-import-module" x1="237.83374667322752" y1="474.7377509286913" x2="268.6937657938023" y2="767.6901707920697"></line><line class="link link-import link-import-module" x1="237.83374667322752" y1="474.7377509286913" x2="635.2056690104674" y2="521.558937513791"></line><line class="link link-import link-import-module" x1="237.83374667322752" y1="474.7377509286913" x2="494.5732218014737" y2="707.9838147167904"></line><line class="link link-import link-import-module" x1="237.83374667322752" y1="474.7377509286913" x2="387.3728403018081" y2="639.6736101507939"></line><line class="link link-import link-import-external" x1="237.83374667322752" y1="474.7377509286913" x2="343.3515375894208" y2="775.0835317419325"></line><line class="link link-import link-import-module" x1="188.89847156591446" y1="703.0468064976268" x2="293.258524946204" y2="926.1107398337517"></line><line class="link link-import link-import-module" x1="188.89847156591446" y1="703.0468064976268" x2="568.1141746403251" y2="594.7561025342803"></line><line class="link link-import link-import-module" x1="188.89847156591446" y1="703.0468064976268" x2="494.5732218014737" y2="707.9838147167904"></line><line class="link link-import link-import-module" x1="88.87761653230413" y1="562.9057532752321" x2="160.01484337024814" y2="591.2228389416957"></line><line class="link link-import link-import-module" x1="88.87761653230413" y1="562.9057532752321" x2="568.1141746403251" y2="594.7561025342803"></line><line class="link link-import link-import-module" x1="137.68190772359281" y1="491.2235926001031" x2="124.28402906132634" y2="691.7223526088086"></line><line class="link link-import link-import-module" x1="137.68190772359281" y1="491.2235926001031" x2="568.1141746403251" y2="594.7561025342803"></line><line class="link link-import link-import-module" x1="124.28402906132634" y1="691.7223526088086" x2="264.5484108749934" y2="845.2138519902165"></line><line class="link link-import link-import-module" x1="124.28402906132634" y1="691.7223526088086" x2="568.1141746403251" y2="594.7561025342803"></line><line class="link link-import link-import-module" x1="124.28402906132634" y1="691.7223526088086" x2="494.5732218014737" y2="707.9838147167904"></line><line class="link link-import link-import-module" x1="124.28402906132634" y1="691.7223526088086" x2="160.01484337024814" y2="591.2228389416957"></line><line class="link link-import link-import-module" x1="124.28402906132634" y1="691.7223526088086" x2="88.87761653230413" y2="562.9057532752321"></line><line class="link link-import link-import-module" x1="160.01484337024814" y1="591.2228389416957" x2="293.258524946204" y2="926.1107398337517"></line><line class="link link-import link-import-module" x1="160.01484337024814" y1="591.2228389416957" x2="568.1141746403251" y2="594.7561025342803"></line><line class="link link-import link-import-module" x1="160.01484337024814" y1="591.2228389416957" x2="494.5732218014737" y2="707.9838147167904"></line><line class="link link-import link-import-external" x1="160.01484337024814" y1="591.2228389416957" x2="343.3515375894208" y2="775.0835317419325"></line><line class="link link-import link-import-external" x1="160.01484337024814" y1="591.2228389416957" x2="624.6313018538023" y2="876.7415893781731"></line><line class="link link-import link-import-module" x1="663.5914585936457" y1="30.772977834007154" x2="567.4612649629669" y2="44.00265258272725"></line><line class="link link-import link-import-module" x1="663.5914585936457" y1="30.772977834007154" x2="568.1141746403251" y2="594.7561025342803"></line><line class="link link-import link-import-module" x1="567.4612649629669" y1="44.00265258272725" x2="568.1141746403251" y2="594.7561025342803"></line><line class="link link-import link-import-module" x1="1080.554275178157" y1="487.73598332266755" x2="568.1141746403251" y2="594.7561025342803"></line><line class="link link-import link-import-module" x1="1080.554275178157" y1="487.73598332266755" x2="635.2056690104674" y2="521.558937513791"></line><line class="link link-import link-import-module" x1="1006.370581051336" y1="524.6994353967677" x2="568.1141746403251" y2="594.7561025342803"></line><line class="link link-import link-import-module" x1="1006.370581051336" y1="524.6994353967677" x2="635.2056690104674" y2="521.558937513791"></line><line class="link link-import link-import-module" x1="1006.370581051336" y1="524.6994353967677" x2="494.5732218014737" y2="707.9838147167904"></line><line class="link link-import link-import-module" x1="1006.370581051336" y1="524.6994353967677" x2="634.9215119232665" y2="430.58558005429825"></line><line class="link link-import link-import-external" x1="1006.370581051336" y1="524.6994353967677" x2="1312.1967665617735" y2="729.2953023361354"></line><line class="link link-import link-import-module" x1="994.2850176348812" y1="360.22359395866494" x2="568.1141746403251" y2="594.7561025342803"></line><line class="link link-import link-import-module" x1="994.2850176348812" y1="360.22359395866494" x2="494.5732218014737" y2="707.9838147167904"></line><line class="link link-import link-import-module" x1="994.2850176348812" y1="360.22359395866494" x2="634.9215119232665" y2="430.58558005429825"></line><line class="link link-import link-import-module" x1="1071.0536143410843" y1="395.2658670278459" x2="568.1141746403251" y2="594.7561025342803"></line><line class="link link-import link-import-module" x1="1071.0536143410843" y1="395.2658670278459" x2="1007.4750550769218" y2="582.4753788935093"></line><line class="link link-import link-import-module" x1="1071.0536143410843" y1="395.2658670278459" x2="1006.370581051336" y2="524.6994353967677"></line><line class="link link-import link-import-module" x1="1007.4750550769218" y1="582.4753788935093" x2="704.8981558952366" y2="950.4176852977372"></line><line class="link link-import link-import-module" x1="1007.4750550769218" y1="582.4753788935093" x2="568.1141746403251" y2="594.7561025342803"></line><line class="link link-import link-import-module" x1="1007.4750550769218" y1="582.4753788935093" x2="1080.554275178157" y2="487.73598332266755"></line><line class="link link-import link-import-module" x1="1007.4750550769218" y1="582.4753788935093" x2="994.2850176348812" y2="360.22359395866494"></line><line class="link link-import link-import-module" x1="1007.4750550769218" y1="582.4753788935093" x2="494.5732218014737" y2="707.9838147167904"></line><line class="link link-import link-import-module" x1="1007.4750550769218" y1="582.4753788935093" x2="634.9215119232665" y2="430.58558005429825"></line><line class="link link-import link-import-external" x1="1007.4750550769218" y1="582.4753788935093" x2="889.4166897981936" y2="919.574631935454"></line><line class="link link-import link-import-module" x1="362.17082441044766" y1="329.82872704116716" x2="264.5484108749934" y2="845.2138519902165"></line><line class="link link-import link-import-module" x1="362.17082441044766" y1="329.82872704116716" x2="268.6937657938023" y2="767.6901707920697"></line><line class="link link-import link-import-module" x1="362.17082441044766" y1="329.82872704116716" x2="365.64081059513734" y2="215.82596078844068"></line><line class="link link-import link-import-module" x1="362.17082441044766" y1="329.82872704116716" x2="568.1141746403251" y2="594.7561025342803"></line><line class="link link-import link-import-module" x1="362.17082441044766" y1="329.82872704116716" x2="635.2056690104674" y2="521.558937513791"></line><line class="link link-import link-import-module" x1="365.64081059513734" y1="215.82596078844068" x2="293.258524946204" y2="926.1107398337517"></line><line class="link link-import link-import-module" x1="365.64081059513734" y1="215.82596078844068" x2="568.1141746403251" y2="594.7561025342803"></line><g class="node node-root" transform="translate(679.6441931935057,705.14579588356)"><text dx="0" dy="-1em">/</text><circle r="8.493333333333334"><title>/</title></circle></g><g class="node node-module" transform="translate(824.5467079422563,797.9290856054455)"><text dx="0" dy="-1em">base-styles</text><circle r="8.493333333333334"><title>base-styles</title></circle></g><g class="node node-module" transform="translate(803.8803720236589,759.0061099020462)"><text dx="0" dy="-1em">big-play-button</text><circle r="8.493333333333334"><title>big-play-button</title></circle></g><g class="node node-module" transform="translate(757.4034212250432,625.0991160044225)"><text dx="0" dy="-1em">button</text><circle r="8.493333333333334"><title>button</title></circle></g><g class="node node-module" transform="translate(601.9187047006375,767.9364909511985)"><text dx="0" dy="-1em">clickable-component</text><circle r="8.493333333333334"><title>clickable-component</title></circle></g><g class="node node-module" transform="translate(832.2533197272762,721.8071527165122)"><text dx="0" dy="-1em">close-button</text><circle r="8.493333333333334"><title>close-button</title></circle></g><g class="node node-module" transform="translate(568.1141746403251,594.7561025342803)"><text dx="0" dy="-1em">component</text><circle r="8.493333333333334"><title>component</title></circle></g><g class="node node-directory" transform="translate(658.3211055336436,385.603225295007)"><text dx="0" dy="-1em">control-bar</text><circle r="8.493333333333334"><title>control-bar</title></circle></g><g class="node node-module" transform="translate(599.8237692630742,803.0735158410537)"><text dx="0" dy="-1em">error-display</text><circle r="8.493333333333334"><title>error-display</title></circle></g><g class="node node-module" transform="translate(767.8891611921996,825.9243890095503)"><text dx="0" dy="-1em">event-target</text><circle r="8.493333333333334"><title>event-target</title></circle></g><g class="node node-module" transform="translate(807.962516633076,611.0394412301515)"><text dx="0" dy="-1em">extend</text><circle r="8.493333333333334"><title>extend</title></circle></g><g class="node node-module" transform="translate(819.9136033248195,661.7211359009759)"><text dx="0" dy="-1em">fullscreen-api</text><circle r="8.493333333333334"><title>fullscreen-api</title></circle></g><g class="node node-module" transform="translate(698.9126280502552,820.2036943405963)"><text dx="0" dy="-1em">loading-spinner</text><circle r="8.493333333333334"><title>loading-spinner</title></circle></g><g class="node node-module" transform="translate(729.2587046683751,852.4662390611517)"><text dx="0" dy="-1em">media-error</text><circle r="8.493333333333334"><title>media-error</title></circle></g><g class="node node-directory" transform="translate(387.8199839349584,831.982352771916)"><text dx="0" dy="-1em">menu</text><circle r="8.493333333333334"><title>menu</title></circle></g><g class="node node-module" transform="translate(570.8384518447203,727.0264346192337)"><text dx="0" dy="-1em">modal-dialog</text><circle r="8.493333333333334"><title>modal-dialog</title></circle></g><g class="node node-module" transform="translate(586.6702549784101,675.057947316291)"><text dx="0" dy="-1em">player</text><circle r="8.493333333333334"><title>player</title></circle></g><g class="node node-module" transform="translate(855.5157410133343,684.2263741818755)"><text dx="0" dy="-1em">plugins</text><circle r="8.493333333333334"><title>plugins</title></circle></g><g class="node node-directory" transform="translate(934.5578622182151,772.0948461598746)"><text dx="0" dy="-1em">popup</text><circle r="8.493333333333334"><title>popup</title></circle></g><g class="node node-module" transform="translate(744.0427117277884,578.6380355231554)"><text dx="0" dy="-1em">poster-image</text><circle r="8.493333333333334"><title>poster-image</title></circle></g><g class="node node-module" transform="translate(775.6288243732996,716.7015791361296)"><text dx="0" dy="-1em">setup</text><circle r="8.493333333333334"><title>setup</title></circle></g><g class="node node-directory" transform="translate(793.7794130465098,906.4670038334789)"><text dx="0" dy="-1em">slider</text><circle r="8.493333333333334"><title>slider</title></circle></g><g class="node node-directory" transform="translate(491.61725539392444,932.3289413352386)"><text dx="0" dy="-1em">tech</text><circle r="8.493333333333334"><title>tech</title></circle></g><g class="node node-directory" transform="translate(664.883760510741,1023.6795146933663)"><text dx="0" dy="-1em">tracks</text><circle r="8.493333333333334"><title>tracks</title></circle></g><g class="node node-directory" transform="translate(514.3699278086561,569.0095161135963)"><text dx="0" dy="-1em">utils</text><circle r="8.493333333333334"><title>utils</title></circle></g><g class="node node-module" transform="translate(674.8622925433575,613.995706350387)"><text dx="0" dy="-1em">video</text><circle r="8.493333333333334"><title>video</title></circle></g><g class="node node-module" transform="translate(617.6946636910654,636.3930955332486)"><text dx="0" dy="-1em">browser</text><circle r="8.493333333333334"><title>browser</title></circle></g><g class="node node-module" transform="translate(469.09591747178445,448.4135060990283)"><text dx="0" dy="-1em">buffer</text><circle r="8.493333333333334"><title>buffer</title></circle></g><g class="node node-module" transform="translate(424.4647214089386,455.8377371719095)"><text dx="0" dy="-1em">create-deprecation-proxy</text><circle r="8.493333333333334"><title>create-deprecation-proxy</title></circle></g><g class="node node-module" transform="translate(635.2056690104674,521.558937513791)"><text dx="0" dy="-1em">dom</text><circle r="8.493333333333334"><title>dom</title></circle></g><g class="node node-module" transform="translate(478.37514202204164,657.91898611227)"><text dx="0" dy="-1em">events</text><circle r="8.493333333333334"><title>events</title></circle></g><g class="node node-module" transform="translate(494.5732218014737,707.9838147167904)"><text dx="0" dy="-1em">fn</text><circle r="8.493333333333334"><title>fn</title></circle></g><g class="node node-module" transform="translate(634.9215119232665,430.58558005429825)"><text dx="0" dy="-1em">format-time</text><circle r="8.493333333333334"><title>format-time</title></circle></g><g class="node node-module" transform="translate(566.6999417680721,475.01678310313616)"><text dx="0" dy="-1em">guid</text><circle r="8.493333333333334"><title>guid</title></circle></g><g class="node node-module" transform="translate(434.4974609885775,691.3303580831789)"><text dx="0" dy="-1em">log</text><circle r="8.493333333333334"><title>log</title></circle></g><g class="node node-module" transform="translate(369.42401729523095,589.8153578570633)"><text dx="0" dy="-1em">merge-options</text><circle r="8.493333333333334"><title>merge-options</title></circle></g><g class="node node-module" transform="translate(533.7011616046906,437.2918786204235)"><text dx="0" dy="-1em">stylesheet</text><circle r="8.493333333333334"><title>stylesheet</title></circle></g><g class="node node-module" transform="translate(395.4831054891006,523.6163887204334)"><text dx="0" dy="-1em">time-ranges</text><circle r="8.493333333333334"><title>time-ranges</title></circle></g><g class="node node-module" transform="translate(387.3728403018081,639.6736101507939)"><text dx="0" dy="-1em">to-title-case</text><circle r="8.493333333333334"><title>to-title-case</title></circle></g><g class="node node-module" transform="translate(416.3917425059618,600.6624486435607)"><text dx="0" dy="-1em">url</text><circle r="8.493333333333334"><title>url</title></circle></g><g class="node node-module" transform="translate(684.1694862213438,1137.0574436662296)"><text dx="0" dy="-1em">html-track-element-list</text><circle r="8.493333333333334"><title>html-track-element-list</title></circle></g><g class="node node-module" transform="translate(761.7646153761967,1083.3389900505158)"><text dx="0" dy="-1em">html-track-element</text><circle r="8.493333333333334"><title>html-track-element</title></circle></g><g class="node node-module" transform="translate(810.8838274842391,1060.3671229053107)"><text dx="0" dy="-1em">text-track-cue-list</text><circle r="8.493333333333334"><title>text-track-cue-list</title></circle></g><g class="node node-module" transform="translate(519.780192876135,1043.404368608525)"><text dx="0" dy="-1em">text-track-display</text><circle r="8.493333333333334"><title>text-track-display</title></circle></g><g class="node node-module" transform="translate(683.0936548090083,1185.4394788719367)"><text dx="0" dy="-1em">text-track-enums</text><circle r="8.493333333333334"><title>text-track-enums</title></circle></g><g class="node node-module" transform="translate(769.592731036509,1135.3081545102862)"><text dx="0" dy="-1em">text-track-list-converter</text><circle r="8.493333333333334"><title>text-track-list-converter</title></circle></g><g class="node node-module" transform="translate(589.39269682177,1117.3171210603887)"><text dx="0" dy="-1em">text-track-list</text><circle r="8.493333333333334"><title>text-track-list</title></circle></g><g class="node node-module" transform="translate(532.0408687906302,981.5138682649493)"><text dx="0" dy="-1em">text-track-settings</text><circle r="8.493333333333334"><title>text-track-settings</title></circle></g><g class="node node-module" transform="translate(580.8057853080886,968.1094663719555)"><text dx="0" dy="-1em">text-track</text><circle r="8.493333333333334"><title>text-track</title></circle></g><g class="node node-module" transform="translate(430.36815164483187,1084.7172531996407)"><text dx="0" dy="-1em">flash-rtmp</text><circle r="8.493333333333334"><title>flash-rtmp</title></circle></g><g class="node node-module" transform="translate(538.188702157829,862.1076705956449)"><text dx="0" dy="-1em">flash</text><circle r="8.493333333333334"><title>flash</title></circle></g><g class="node node-module" transform="translate(465.73526528257463,821.1801713091774)"><text dx="0" dy="-1em">html5</text><circle r="8.493333333333334"><title>html5</title></circle></g><g class="node node-module" transform="translate(371.1646084977313,1003.4228882892384)"><text dx="0" dy="-1em">loader</text><circle r="8.493333333333334"><title>loader</title></circle></g><g class="node node-module" transform="translate(398.490487416061,922.4157511540038)"><text dx="0" dy="-1em">tech</text><circle r="8.493333333333334"><title>tech</title></circle></g><g class="node node-module" transform="translate(704.8981558952366,950.4176852977372)"><text dx="0" dy="-1em">slider</text><circle r="8.493333333333334"><title>slider</title></circle></g><g class="node node-module" transform="translate(981.5013601892394,691.5074271766889)"><text dx="0" dy="-1em">popup-button</text><circle r="8.493333333333334"><title>popup-button</title></circle></g><g class="node node-module" transform="translate(906.5303836982115,850.6578299269698)"><text dx="0" dy="-1em">popup</text><circle r="8.493333333333334"><title>popup</title></circle></g><g class="node node-module" transform="translate(264.5484108749934,845.2138519902165)"><text dx="0" dy="-1em">menu-button</text><circle r="8.493333333333334"><title>menu-button</title></circle></g><g class="node node-module" transform="translate(293.258524946204,926.1107398337517)"><text dx="0" dy="-1em">menu-item</text><circle r="8.493333333333334"><title>menu-item</title></circle></g><g class="node node-module" transform="translate(268.6937657938023,767.6901707920697)"><text dx="0" dy="-1em">menu</text><circle r="8.493333333333334"><title>menu</title></circle></g><g class="node node-module" transform="translate(604.5445043120596,263.1441123960949)"><text dx="0" dy="-1em">control-bar</text><circle r="8.493333333333334"><title>control-bar</title></circle></g><g class="node node-module" transform="translate(798.7479434067761,370.14678883859335)"><text dx="0" dy="-1em">fullscreen-toggle</text><circle r="8.493333333333334"><title>fullscreen-toggle</title></circle></g><g class="node node-module" transform="translate(740.8881960083836,285.7054306379233)"><text dx="0" dy="-1em">live-display</text><circle r="8.493333333333334"><title>live-display</title></circle></g><g class="node node-module" transform="translate(691.0214364024736,274.3859246449691)"><text dx="0" dy="-1em">mute-toggle</text><circle r="8.493333333333334"><title>mute-toggle</title></circle></g><g class="node node-module" transform="translate(780.7965407130813,325.0435219092162)"><text dx="0" dy="-1em">play-toggle</text><circle r="8.493333333333334"><title>play-toggle</title></circle></g><g class="node node-directory" transform="translate(482.89371964301154,255.41254703850885)"><text dx="0" dy="-1em">playback-rate-menu</text><circle r="8.493333333333334"><title>playback-rate-menu</title></circle></g><g class="node node-directory" transform="translate(955.4787496163672,444.3276059586268)"><text dx="0" dy="-1em">progress-control</text><circle r="8.493333333333334"><title>progress-control</title></circle></g><g class="node node-directory" transform="translate(640.454803108471,144.96158944058993)"><text dx="0" dy="-1em">spacer-controls</text><circle r="8.493333333333334"><title>spacer-controls</title></circle></g><g class="node node-directory" transform="translate(242.8963144332967,566.8951458465149)"><text dx="0" dy="-1em">text-track-controls</text><circle r="8.493333333333334"><title>text-track-controls</title></circle></g><g class="node node-directory" transform="translate(840.7511164034868,233.31956586973428)"><text dx="0" dy="-1em">time-controls</text><circle r="8.493333333333334"><title>time-controls</title></circle></g><g class="node node-directory" transform="translate(408.1615060369798,274.96141361376044)"><text dx="0" dy="-1em">volume-control</text><circle r="8.493333333333334"><title>volume-control</title></circle></g><g class="node node-module" transform="translate(769.5711998050696,448.3458122522547)"><text dx="0" dy="-1em">volume-menu-button</text><circle r="8.493333333333334"><title>volume-menu-button</title></circle></g><g class="node node-module" transform="translate(316.66026286364445,377.9751078046992)"><text dx="0" dy="-1em">volume-bar</text><circle r="8.493333333333334"><title>volume-bar</title></circle></g><g class="node node-module" transform="translate(306.1478534998529,181.22024918656138)"><text dx="0" dy="-1em">volume-control</text><circle r="8.493333333333334"><title>volume-control</title></circle></g><g class="node node-module" transform="translate(265.44049551465383,251.29738238558633)"><text dx="0" dy="-1em">volume-level</text><circle r="8.493333333333334"><title>volume-level</title></circle></g><g class="node node-module" transform="translate(868.7935329682535,142.45448004419632)"><text dx="0" dy="-1em">current-time-display</text><circle r="8.493333333333334"><title>current-time-display</title></circle></g><g class="node node-module" transform="translate(749.3801180048923,170.25879402027175)"><text dx="0" dy="-1em">duration-display</text><circle r="8.493333333333334"><title>duration-display</title></circle></g><g class="node node-module" transform="translate(798.4858021882904,136.2830530833746)"><text dx="0" dy="-1em">remaining-time-display</text><circle r="8.493333333333334"><title>remaining-time-display</title></circle></g><g class="node node-module" transform="translate(953.9880481323779,190.41644589353783)"><text dx="0" dy="-1em">time-divider</text><circle r="8.493333333333334"><title>time-divider</title></circle></g><g class="node node-module" transform="translate(94.19523723314603,624.74593487306)"><text dx="0" dy="-1em">caption-settings-menu-item</text><circle r="8.493333333333334"><title>caption-settings-menu-item</title></circle></g><g class="node node-module" transform="translate(164.58065076022163,634.546980118963)"><text dx="0" dy="-1em">captions-button</text><circle r="8.493333333333334"><title>captions-button</title></circle></g><g class="node node-module" transform="translate(237.83374667322752,474.7377509286913)"><text dx="0" dy="-1em">chapters-button</text><circle r="8.493333333333334"><title>chapters-button</title></circle></g><g class="node node-module" transform="translate(188.89847156591446,703.0468064976268)"><text dx="0" dy="-1em">chapters-track-menu-item</text><circle r="8.493333333333334"><title>chapters-track-menu-item</title></circle></g><g class="node node-module" transform="translate(88.87761653230413,562.9057532752321)"><text dx="0" dy="-1em">off-text-track-menu-item</text><circle r="8.493333333333334"><title>off-text-track-menu-item</title></circle></g><g class="node node-module" transform="translate(137.68190772359281,491.2235926001031)"><text dx="0" dy="-1em">subtitles-button</text><circle r="8.493333333333334"><title>subtitles-button</title></circle></g><g class="node node-module" transform="translate(124.28402906132634,691.7223526088086)"><text dx="0" dy="-1em">text-track-button</text><circle r="8.493333333333334"><title>text-track-button</title></circle></g><g class="node node-module" transform="translate(160.01484337024814,591.2228389416957)"><text dx="0" dy="-1em">text-track-menu-item</text><circle r="8.493333333333334"><title>text-track-menu-item</title></circle></g><g class="node node-module" transform="translate(663.5914585936457,30.772977834007154)"><text dx="0" dy="-1em">custom-control-spacer</text><circle r="8.493333333333334"><title>custom-control-spacer</title></circle></g><g class="node node-module" transform="translate(567.4612649629669,44.00265258272725)"><text dx="0" dy="-1em">spacer</text><circle r="8.493333333333334"><title>spacer</title></circle></g><g class="node node-module" transform="translate(1080.554275178157,487.73598332266755)"><text dx="0" dy="-1em">load-progress-bar</text><circle r="8.493333333333334"><title>load-progress-bar</title></circle></g><g class="node node-module" transform="translate(1006.370581051336,524.6994353967677)"><text dx="0" dy="-1em">mouse-time-display</text><circle r="8.493333333333334"><title>mouse-time-display</title></circle></g><g class="node node-module" transform="translate(994.2850176348812,360.22359395866494)"><text dx="0" dy="-1em">play-progress-bar</text><circle r="8.493333333333334"><title>play-progress-bar</title></circle></g><g class="node node-module" transform="translate(1071.0536143410843,395.2658670278459)"><text dx="0" dy="-1em">progress-control</text><circle r="8.493333333333334"><title>progress-control</title></circle></g><g class="node node-module" transform="translate(1007.4750550769218,582.4753788935093)"><text dx="0" dy="-1em">seek-bar</text><circle r="8.493333333333334"><title>seek-bar</title></circle></g><g class="node node-module" transform="translate(362.17082441044766,329.82872704116716)"><text dx="0" dy="-1em">playback-rate-menu-button</text><circle r="8.493333333333334"><title>playback-rate-menu-button</title></circle></g><g class="node node-module" transform="translate(365.64081059513734,215.82596078844068)"><text dx="0" dy="-1em">playback-rate-menu-item</text><circle r="8.493333333333334"><title>playback-rate-menu-item</title></circle></g><g class="node node-external" transform="translate(624.6313018538023,876.7415893781731)"><text dx="0" dy="-1em">global/document</text><circle r="8.493333333333334"><title>global/document</title></circle></g><g class="node node-external" transform="translate(889.4166897981936,919.574631935454)"><text dx="0" dy="-1em">object.assign</text><circle r="8.493333333333334"><title>object.assign</title></circle></g><g class="node node-external" transform="translate(343.3515375894208,775.0835317419325)"><text dx="0" dy="-1em">global/window</text><circle r="8.493333333333334"><title>global/window</title></circle></g><g class="node node-external" transform="translate(395.53603106067715,149.4488397551548)"><text dx="0" dy="-1em">safe-json-parse/tuple</text><circle r="8.493333333333334"><title>safe-json-parse/tuple</title></circle></g><g class="node node-external" transform="translate(176.63176274765772,1002.5396685494428)"><text dx="0" dy="-1em">lodash-compat/object/merge</text><circle r="8.493333333333334"><title>lodash-compat/object/merge</title></circle></g><g class="node node-external" transform="translate(172.5083800244942,337.2080320779295)"><text dx="0" dy="-1em">xhr</text><circle r="8.493333333333334"><title>xhr</title></circle></g><g class="node node-external" transform="translate(1176.2056334104725,872.9683219839309)"><text dx="0" dy="-1em">tsml</text><circle r="8.493333333333334"><title>tsml</title></circle></g><g class="node node-external" transform="translate(1312.1967665617735,729.2953023361354)"><text dx="0" dy="-1em">lodash-compat/function/throttle</text><circle r="8.493333333333334"><title>lodash-compat/function/throttle</title></circle></g>
</svg>